<?xml version="1.0" encoding="UTF-8"?>
<svg version="1.1" viewBox="0 0 1200 1200" width="300" height="300" xmlns="http://www.w3.org/2000/svg">
<path transform="translate(517,357)" d="m0 0h4l1 3-1 15-1 32 3 29 1 7 7 20 5 11 5 9 10 13 4 4v2l4 2 10 9 18 10 20 9 14 5 14 4 33 11 16 8 11 7 10 8 13 13 1 2-1 39-5 15-8 12-8 7-15 8-7 1h-8v-21l12-6 7-8 1-3v-45l-8-14-9-9-6-1-4 5-1 5v96l-1 1h-48l-1-1v-37l12-7 6-7 2-10-1-44-6 1-1 44-3 7-5 5h-4l-1-58h-7v58l-6-1-5-8-1-3-1-46h-6v51l4 8 8 6 7 4v37l-1 1h-60v-85l9-5 6-7 4-7v-30l-3-9-5-13-6-7-7-3-7 1-4 1-2 4-6 10-6 16-1 12v10l2 9 7 11 11 7 1 2v56l-1 26-1 1h-10l-7-3-10-5-10-9-6-9-6-15-1-1v-231l3-5 2-9 7-11 7-7 15-9z" fill="#F3B315"/>
<path transform="translate(531,356)" d="m0 0h45l-1 5-3 4-3 10-2 5-3 26 1 14 2 16 8 19 8 13 12 13 9 8 16 10 9 4 8 3 15 3h24l19-4 15-6 6-3h3v26l-1 53-6-4-10-9-15-9-17-8-16-6-15-5-10-3-15-5-5-3-7-1-16-8-9-5-9-7-15-15-8-13-7-14-5-15-1-9-2-6-2-15v-37l2-21z" fill="#F3B315"/>
<path transform="translate(588,356)" d="m0 0h47l-2 5-9 7-8 9-7 17v28l6 14 5 8-7 8-3 3 2 4 2 3 4-1 7-7 1-2 4 1 7 5 13 5 6 1h19l11-3 12-6 10-9 7-7 1-2h3v47l-6 5-16 7-13 4-5 1h-29l-18-5-16-8-12-9-12-12-7-10-5-10-4-9-4-17-1-16 2-13 4-16 8-16z" fill="#F3B315"/>
<path transform="translate(658,359)" d="m0 0h12l14 4 9 5 9 8 7 11 5 14v16l-7 16-8 10-13 9-13 4h-14l-13-3-10-6-9-9-8-14-1-5v-24l8-16 5-5 9-8 7-4 9-1z" fill="#F3B315"/>
<path transform="translate(454,698)" d="m0 0 16 1v81h-17v-35h-32v35h-19l-1-4v-77h20v32h32v-32z" fill="#F3B317"/>
<path transform="translate(344,698)" d="m0 0h22l9 3 5 4 8 11 1 5h-18l-9-9-2-1h-8l-6 4-1 7v2l4 2 7 3 14 3 12 7 6 7 2 8-1 11-6 8-6 5-9 3-14 1-12-2-8-4-8-9-3-6v-4l15-1 10 10 3 1h14l6-6-1-7-8-6-16-3-12-6-7-9-2-5v-7l3-8 6-7z" fill="#F3B316"/>
<path transform="translate(677,698)" d="m0 0h14l22 1 9 5 7 8 2 6v14l-5 10-7 5-9 3-6 1h-12l-5-1 1 29-1 1h-20v-81zm11 15-2 3v16l1 4h17l6-3 3-4 1-7-3-6-3-2-9-1z" fill="#F3B315"/>
<path transform="translate(756,699)" d="m0 0h23l4 9 19 55 4 9 2 8h-17l-4-5-3-7-2-6h-29l-3 10-4 8h-16l1-8 12-35 12-36zm9 17-6 22-3 8 1 1h22l-3-10-7-20z" fill="#F3B315"/>
<path transform="translate(507,699)" d="m0 0h26l3 12 11 30 8 24 2 5 3 4v6h-20l-2-7-2-9-1-1h-31l-3 17h-20l1-4 4-10 4-13 3-8 11-33zm12 15-3 8-7 21v4h22l-3-11-7-22z" fill="#F3B315"/>
<path transform="translate(817,699)" d="m0 0h20v67l39-1-1 14-1 1h-53l-4-2z" fill="#F3B315"/>
<path transform="translate(570,699)" d="m0 0h18v67h41v14h-58l-1-1z" fill="#F3B315"/>
<path transform="translate(534,515)" d="m0 0 6 1 5 8 5 13 3 12v11l-6 12-6 5-7 1-6-3-6-8-2-7v-12l3-15 7-14z" fill="#F3B315"/>
<path transform="translate(491,806)" d="m0 0h22l2 4-1 3-6 1h-10v7h15l1 5-1 1-15 1v8l14 1 4 1 4-2 5-13 5-11 4-6 4 1 5 8 9 22 1 6h-7l-3-4v-2h-9l-4-1-3 5-2 1-11 1h-20l-4-2v-29zm44 13-2 7v4h4l1-2v-7l-1-2z" fill="#F3B316"/>
<path transform="translate(667,576)" d="m0 0 4 2 7 10 1 3 1 11v23l-3 10-5 5-4 1-1-1-1-21v-39z" fill="#F3B317"/>
<path transform="translate(623,805)" d="m0 0 10 1 9 6 3 6 1 5v7l-3 7-7 6-3 1h-14l-6-4-5-8v-12l4-8 7-6zm1 7-6 5-3 6 1 8 3 5 4 2h7l6-4 3-5-1-9-7-7z" fill="#F3B316"/>
<path transform="translate(576,807)" d="m0 0h4v14h15v-14h7l1 35-1 1h-6l-1-1-1-15h-13v14l-1 1h-9l-1-34z" fill="#F3B316"/>
<path transform="translate(651,809)" d="m0 0h8l1 5v16l1 6 8 1 3-5 1-22 1-1h7l1 21-2 7-8 7h-11l-5-3-4-5-2-7z" fill="#F3B315"/>
<path transform="translate(721,806)" d="m0 0h18l2 2v6l-16-1v8h15l1 1v5l-15 1-2 8 17 1v5l-1 1h-21l-2-1-1-26 2-9z" fill="#F3B418"/>
<path transform="translate(695,806)" d="m0 0h12l2 3v6l-7-2-5 1-1 5 10 5 3 3 1 9-2 5-2 2-11 1-7-3-1-4 2-1 4 1h9l1-4-4-4-10-4-1-1v-10l3-5z" fill="#F3B51D"/>
<path transform="translate(459,806)" d="m0 0h26v8l-5 1h-4l-1 27h-6l-1-27h-9l-1-1v-7z" fill="#F3B317"/>
</svg>
